<svg xmlns="http://www.w3.org/2000/svg" width="1200" height="720" viewBox="0 0 1200 720" role="img" aria-labelledby="title desc">
  <title id="title">PDF Editor hero placeholder</title>
  <desc id="desc">A placeholder hero illustration for the PDF Editor product page.</desc>
  <rect width="1200" height="720" fill="#eef3f7"/>
  <rect x="90" y="80" width="1020" height="560" rx="28" fill="#ffffff" stroke="#d0dbe4" stroke-width="4"/>
  <rect x="90" y="80" width="1020" height="70" rx="28" fill="#063655"/>
  <circle cx="140" cy="115" r="12" fill="#ffffff" opacity="0.65"/>
  <circle cx="180" cy="115" r="12" fill="#ffffff" opacity="0.65"/>
  <circle cx="220" cy="115" r="12" fill="#ffffff" opacity="0.65"/>
  <rect x="150" y="190" width="240" height="340" rx="18" fill="#f5f7fa" stroke="#d0dbe4" stroke-width="3"/>
  <rect x="430" y="190" width="520" height="68" rx="14" fill="#f5f7fa"/>
  <rect x="430" y="288" width="520" height="24" rx="12" fill="#c4d4e2"/>
  <rect x="430" y="330" width="440" height="24" rx="12" fill="#d9e4ed"/>
  <rect x="430" y="372" width="480" height="24" rx="12" fill="#d9e4ed"/>
  <rect x="430" y="414" width="410" height="24" rx="12" fill="#d9e4ed"/>
  <rect x="430" y="470" width="180" height="54" rx="14" fill="#063655"/>
  <rect x="630" y="470" width="180" height="54" rx="14" fill="#dbe3eb"/>
  <text x="270" y="365" text-anchor="middle" font-family="Arial, sans-serif" font-size="88" font-weight="700" fill="#063655">PDF</text>
  <text x="690" y="240" text-anchor="middle" font-family="Arial, sans-serif" font-size="44" font-weight="700" fill="#063655">PDF Editor</text>
  <text x="690" y="520" text-anchor="middle" font-family="Arial, sans-serif" font-size="24" font-weight="700" fill="#ffffff">Practical desktop workflow</text>
</svg>
