<svg xmlns="http://www.w3.org/2000/svg" width="900" height="560" viewBox="0 0 900 560" role="img" aria-labelledby="title desc">
  <title id="title">PDF Editor tools panel placeholder</title>
  <desc id="desc">Placeholder screenshot representing the tools panel.</desc>
  <rect width="900" height="560" rx="24" fill="#eef3f7"/>
  <rect x="28" y="28" width="844" height="504" rx="18" fill="#ffffff" stroke="#d0dbe4" stroke-width="4"/>
  <rect x="28" y="28" width="844" height="58" rx="18" fill="#063655"/>
  <rect x="68" y="114" width="190" height="354" rx="16" fill="#f5f7fa"/>
  <rect x="96" y="146" width="134" height="24" rx="12" fill="#063655"/>
  <rect x="96" y="194" width="134" height="20" rx="10" fill="#d0dbe4"/>
  <rect x="96" y="232" width="134" height="20" rx="10" fill="#d0dbe4"/>
  <rect x="96" y="270" width="134" height="20" rx="10" fill="#d0dbe4"/>
  <rect x="96" y="308" width="134" height="20" rx="10" fill="#d0dbe4"/>
  <rect x="96" y="346" width="134" height="20" rx="10" fill="#d0dbe4"/>
  <rect x="306" y="114" width="494" height="354" rx="16" fill="#f7f9fb" stroke="#d0dbe4" stroke-width="3"/>
  <rect x="350" y="170" width="406" height="22" rx="11" fill="#d0dbe4"/>
  <rect x="350" y="214" width="406" height="22" rx="11" fill="#d0dbe4"/>
  <rect x="350" y="258" width="338" height="22" rx="11" fill="#d0dbe4"/>
  <text x="450" y="488" text-anchor="middle" font-family="Arial, sans-serif" font-size="34" font-weight="700" fill="#063655">Tools panel placeholder</text>
</svg>
